<svg xmlns="http://www.w3.org/2000/svg" width="400" height="400" fill="#fff"  opacity=".2" fill-rule="evenodd" xmlns:v="https://vecta.io/nano"><path d="M200 11.859c-103.991 0-188.141 84.265-188.141 188.255S96.123 388.255 200 388.255c103.991 0 188.141-84.264 188.141-188.141C388.255 96.009 303.991 11.859 200 11.859zm0 18.814c-93.501 0-169.327 75.826-169.327 169.327S106.499 369.327 200 369.327 369.327 293.501 369.327 200 293.501 30.673 200 30.673zm7.64 128.506l.456.684c.912 2.167 1.482 3.307.798 5.017-.684 1.825-2.281 3.535-3.991 3.079-1.824-.57-1.938-2.851-4.333-3.307-1.824-.342-3.649 1.597-4.219 3.079-1.596.228-2.622.228-3.877-.684-.684-.456-1.596-1.825-1.824-2.965-.228-1.71.228-2.622.798-3.877.57-1.482 2.281-5.359 3.079-6.613l1.71-3.079c.228-.456 2.737-5.017 3.193-5.245.342-.228.57-.228.912 0 .228.684.57.684 1.026 1.596l3.877 7.07c.228.342.228.456.342.912l.456.912.228.684c.114.342.342.685.457.913.228.684.57 1.368.912 1.824zm-47.663-24.173c0-2.509 2.851-4.903 4.447-5.588 6.386-2.964 13.341.343 18.814 3.649 1.027.684 2.053 1.255 2.965 1.939l4.675 2.964c2.395 1.597 1.026 3.079-.684 4.333-3.763 2.737-12.315 7.754-16.876 7.754-3.877 0-9.35-2.965-12.315-5.473-.912-.684-.798-.228-.798-1.597l-.228-7.981zm80.388 7.867c0 1.483-.342 1.255-1.254 1.939-1.255 1.14-4.333 2.965-5.816 3.535-3.991 1.596-5.359 2.394-10.034.912-4.447-1.482-10.604-4.675-14.253-7.754-2.623-2.28 1.026-3.991 2.623-4.903 6.385-3.991 14.367-10.034 22.463-7.754 2.622.799 6.157 3.307 6.157 6.272v7.753h.114zm-94.527-38.882c-.228.456-.114 1.254 0 2.28l2.053 13.455c.57 3.193 1.368 6.386 2.28 9.464l.114.457c.798 3.534 1.71 4.675 1.824 8.551 0 .685-.114.342.115.799.114 2.622-1.597 4.333-3.307 5.245-2.167 1.14-3.763 1.824-2.623 5.245 1.483 4.219 2.851 8.438 4.219 12.657 1.939 6.043 4.219 5.017 11.973 5.017 1.026 0 2.736.228 3.763.342 1.254.228 2.394.342 3.534.684 2.395.798 4.789 1.596 4.675 3.763-1.368 1.14-2.508-.228-4.675 1.482.114.684 2.623 8.438 2.737 8.666.228.342 4.675 2.851 5.359 3.193s1.254.798 1.939.912c.114-2.052-.457-6.499-.342-7.982h1.824c.114 1.369.114 3.079.342 4.333.228 1.482 0 2.965.342 4.447.342.228 5.701 2.737 6.385 2.737v-9.122h2.167c.228 1.482-.114 9.578.228 9.92.57.57 3.079 1.026 3.877 1.368 1.254.342 2.736.912 3.991 1.14.228-1.026.114-6.271.114-7.981v-2.053c.228-1.14 2.052-.456 2.052-.456l.228.114v10.376c.684 0 7.526-2.166 7.982-2.508.114-1.482 0-3.535 0-5.017 0-5.587-.57-5.017 2.281-4.903v9.122c.798-.114 5.929-2.281 7.069-2.737v-8.666h1.824c0 1.483-.228 2.509-.228 3.763v3.991l3.763-2.053c.57-.342 1.14-.57 1.825-1.026 1.482-.798 1.254-.456 1.482-1.254l1.368-4.219c.342-.912 1.255-3.421 1.255-4.333-1.825-1.938-4.219.114-4.561-1.71-.229-1.369 1.026-1.939 2.052-2.395 3.991-1.938 8.552-2.052 12.999-2.052 3.307 0 6.385.228 7.754-2.395.912-1.596 4.333-12.543 5.245-15.165 1.482-4.447-1.027-4.105-3.421-5.815-3.763-2.851-2.623-7.184-1.482-11.289 2.166-7.982 3.192-12.087 4.561-20.98l1.14-11.403v-2.509c0-1.71.228-3.079.228-4.903 0-.912-.228-1.596-.228-2.509 0-2.281-.456-4.447-1.026-6.499-1.141-3.991-3.421-8.438-6.044-11.631l-2.28-2.737c-.456-.684-.684-.798-1.14-1.368-.799-.798-2.509-2.394-3.421-3.079-.456-.342-.342-.228-.684-.57-2.167-2.052-8.21-5.587-10.833-6.956a67.65 67.65 0 0 0-7.183-2.965l-3.763-1.254c-3.991-1.368-5.701-.912-8.894-1.368-.684-.114-1.71 0-2.509 0-.912 0-1.368-.228-2.394-.228-2.623 0-7.868-.342-10.034.114l-4.675.342c-3.193 0-5.588.684-8.552 1.596-1.369.456-2.395.912-3.763 1.368-4.447 1.482-12.657 5.815-16.42 9.008-4.903 4.219-8.666 7.868-11.63 13.797-3.421 6.728-3.877 11.745-3.649 19.156 0 .912.228 1.254.228 2.395.342 1.71.57 2.964.57 4.789zm80.046 111.06c.342.456.228.228.684.456.342.114.114 0 .456.228l15.279 6.728c2.053.684 4.447.456 6.5.342 1.368-.114 2.394-.456 3.649-.912l13.34-5.929s.114 0 .114-.115l9.921-4.218h.114l4.219-1.597s.342-.114.456-.228l1.026-.456h.114l1.254-.456h.114l.456-.114.228-.114 5.702-2.281h.114l1.482-.456h.114l11.517-4.105c.456-.114.684-.114 1.254-.228 1.482-.228 3.535 0 4.903.342l2.166.685 5.816 1.824h.114l8.894 4.105c1.938 1.254 5.473 4.333 6.841 6.043l.912 1.14c1.027 1.141 2.395 2.509 3.079 3.877l1.482 2.167 2.509 4.561.57 1.482c.114.456.114.228.228.57.342.798.342 1.369.684 2.167-1.026.57-1.368.342-1.254 1.596v8.096c.912.228 2.052.798 2.851 1.254 0 .684 0 .57-.114 1.14-.457 1.483-.685 3.877-.913 5.702-.114.57-.228.456-.228 1.254l-3.42-.342c-.571 0-.571.342-.913.798l-.912 1.596-.57.913-1.482 2.508-.456.912 1.368 1.711.114.114 1.254 1.596c-.342.57-1.026 1.026-.798 1.71-.114.343-.798 1.255-1.026 1.597-1.026 1.026-2.395 2.508-3.649 3.421-.228.114 0 0-.342.228-1.254-.799-1.824-1.825-2.851-2.623-.57.114-6.271 2.395-6.499 2.737-.456 1.14.114 3.762-.114 5.245-1.939 1.14-5.359 1.938-7.982 1.596-.114-.342-.228-1.71-.228-2.166-.114-.799-.228-1.255-.228-2.053l-7.412-1.14c-.456.57-.798 1.596-1.254 2.28-.912 1.597-.912 2.281-1.596 2.281-.57 0 .114 0-.228 0 0 0-.342-.114-.456-.114l-2.737-1.026c-.912-.342-3.079-1.027-3.649-1.483 0-.912 1.026-3.192 1.14-4.219-1.14-.798-4.675-4.218-5.587-4.789-.684.228-2.85 1.825-3.649 2.281-.57-.57-3.648-5.473-3.99-6.386.342-.57 1.14-1.254 1.596-1.596-.114-.798-1.71-6.841-2.053-7.297h-3.762c-.114-1.141 0-2.851 0-4.105 0-1.483-.228-2.281-.228-3.763l3.306-.228c.114-.57.456-7.526.228-7.982-.684-.684-1.368-1.026-1.368-2.395 0-1.254.57-2.052.57-3.192-.57.228-1.14.912-1.596 1.368-1.368 1.71-2.395 3.193-3.307 5.245-3.421 7.07-5.473 9.692-2.394 17.218 2.964 7.184 6.385 17.104 9.92 23.945l7.183 15.508c-.114.57.684 2.052 1.027 2.508 1.14 1.825-.114 1.597 2.964 2.281l1.597.342 5.701 1.14c1.026.228 2.166.342 3.193.684.912.342 2.166.342 3.192.57h.114l.228.114s.228 0 .228.114c.913.228 1.711.456 2.395.228 2.166.343 4.333.799 6.385 1.255.798.228 2.509.456 3.421.456 2.167 0 2.737-1.254 3.421-2.053l12.885-15.165c7.753-9.464 11.858-17.788 14.937-29.875 1.368-5.359 1.596-7.183 2.508-12.542.343-2.281.571-5.359.799-6.728.114-.684.342-2.508.342-3.421 0-1.368.228-2.166.228-3.534-.114-7.868-.342-13.455-1.711-20.753-1.026-5.701-2.85-11.973-6.613-15.849-2.509-2.509-5.587-3.991-10.148-4.789-2.167-.342-4.561-.457-6.842-.799l-17.446-1.14-7.183.228-3.193.342c-5.131.456-7.754 1.027-12.657 2.281a29.44 29.44 0 0 0-2.964.912c-1.027.342-1.939.684-2.851.912-.342-.912-1.254-1.938-1.71-2.964l-7.298 1.254c-1.14 1.026.228 2.28-1.254 2.964l-4.333 1.825c-1.483.684-2.737-1.825-3.649-1.939-.57.114-5.929 2.965-6.613 3.535 0 .57-.114 1.026-.229 1.597v1.71c-.114.798-1.14 1.14-1.824 1.596-1.14.684-2.965 2.053-4.219 2.509-1.026-.684-3.193-2.737-3.991-3.079-1.482.684-4.447 2.965-6.157 3.763-.114 1.482 0 2.623-.228 3.991-.57 3.763-6.043-.228-7.412-1.14l-14.481-9.578c-1.14-.799-1.026-1.027-2.623-.343l-16.761 6.158v6.841c.684.57 17.902 7.412 20.182 8.438.456.228.798.342 1.255.57l.798.114zM46.18 251.311c-.228.912 1.14 4.561 1.482 6.158l2.052 5.701c.114.456.114.342.342.798.342.798.114.798.798 2.053l.912 1.938.798 1.482 18.358 24.06c.114.228 1.824 2.166 2.167 2.28 1.026.798 1.254 1.482 2.166 2.167.912.798 2.166.912 3.421.684 8.552-1.483 16.876-3.421 25.2-5.017 1.938-.342 1.596 0 2.508-1.825l5.588-11.63 2.736-5.93c3.421-7.525 5.816-13.227 8.894-21.094.456-1.027.798-2.281 1.254-3.307 3.193-7.754 1.255-9.578-1.824-16.306-.798-1.71-3.763-7.183-5.359-7.639-.228.57.456 2.052.57 2.964 0 1.483-.57 1.711-1.368 2.509-.114 1.14-.114 2.851-.114 4.105 0 .228.228 3.649.342 3.877l3.306.228c.115 1.254 0 1.596-.114 1.71l-.114.228c-.228.228-.114 1.711-.114 2.053 0 4.561.913 3.648-4.104 3.648 0 .913-.457 2.281-.457 2.281v.228c-.114.456 0-.114-.114.342l-1.026 3.763c-.114.342-.114.114-.114.57 0 1.026 0 .342.114.57.57.228 1.368 1.026 1.597 1.482-.343.799-3.535 5.93-3.991 6.386-1.027-.57-2.509-1.825-3.649-2.281-.798.456-4.675 4.105-5.587 4.789l1.254 4.219c-.456.342-6.728 2.737-7.526 2.851l-2.508-4.675-4.333.57c-.798.114-1.482.228-2.166.342-1.824.228-.456.684-1.254 1.368l.114.114c0 .571-.228 2.509-.342 2.851-.798.342-3.649.114-4.447-.114-1.368-.342-2.395-.684-3.421-1.368l-.114-5.245c-.228-.228-6.043-2.623-6.499-2.737-1.14.798-1.71 2.052-2.851 2.623-2.395-1.369-4.675-4.447-6.157-6.728.342-1.026 2.052-2.394 2.737-3.535 0-.684-1.368-2.622-1.71-3.306-.456-.799-1.254-2.395-1.938-3.193-.798-.114-2.623.228-3.535.342-.57-.228-.114.114-.342-.456l-1.368-8.096 2.965-1.596v-8.324l-1.368-.57c.228-.456.342-1.369.57-1.939.57-1.596 1.368-3.534 2.166-5.017 1.938-3.763 7.298-10.49 10.604-13.227 5.473-4.447 9.692-5.701 16.078-7.753 4.447-1.483 7.526-2.281 12.087-.913.684.228 3.079.913 3.421 1.255 1.596.456 6.955 2.508 9.008 3.192 6.841 2.395 18.814 7.412 25.541 10.377 1.825.798 3.763 1.71 5.473 2.508 7.07 3.535 11.517 4.675 18.473 1.483 2.622-1.255 32.953-14.254 34.207-15.508v-6.841c-1.026-.342-1.824-.913-2.851-1.255l-12.77-4.903c-1.369-.684-1.483-.228-2.623.57l-14.481 9.464c-8.438 5.816-7.298 1.255-7.526-2.85-1.368-.456-4.561-2.965-6.157-3.763-.798.342-2.167 1.71-2.965 2.281l-1.026.798c-1.026-.342-3.421-2.053-4.333-2.623-2.395-1.482-1.482-1.026-1.71-3.307-.114-.57-.114-.798-.228-1.368-.457-.342-6.044-3.421-6.614-3.535-.342 0-2.28 1.825-3.193 2.167-1.824-1.026-5.359-1.939-5.587-2.851s.228-1.368-.456-2.166c-.684-.228-6.727-1.255-7.412-1.255-.228.799-1.254 2.167-1.824 2.965-.912-.228-2.509-.798-3.535-1.14-7.867-2.623-18.472-3.649-26.91-3.535-.912 0-1.026.228-1.824.228l-6.956.228c-.798.114-1.14.114-2.052.228l-12.657 1.483c-3.535.684-6.841 2.166-9.236 4.561-4.903 4.903-6.613 13.797-7.412 20.524-.57 4.447-.456 4.333-.798 8.552-.228 2.508-.456 6.613-.114 9.122.114.912.114 1.368.114 2.28l.684 6.272c.342 2.736.798 5.359 1.254 8.096.684 2.736 1.368 5.245 1.824 7.753z"/><path d="M204.333 237.742c0 .684 0 0 1.14 1.711.114.228.342.342.57.57l7.64 8.78c.342.57.456.798 1.14.912l16.192 3.193c.342.114 1.026.228 1.596.342l2.395.456 8.894 1.71c2.166.342 6.613 2.509 8.323 3.991.457.342.685.456 1.141.912 2.736 2.281 2.964 2.851 5.245 5.017.456.456.57.685.912 1.141.228.228.228.228.456.57l3.079 4.219c.342.456.57.798.912 1.14l.228.228c.114.228 0 0 .228.228l1.14 1.938c.114.343.228.343.342.571.799 1.254 1.369 2.736 2.053 4.105l.912 2.052c.228.57.228 1.026.456 1.596.456 1.027 1.026 4.105 1.026 5.131 0 2.509.343 2.737 0 5.93v.912c0 .684-.456 2.508-.456 4.105-.684.114-.798.114-1.596.114-.228.228-.342.57-.57.912l-2.737 4.789-.456 1.026c-.912 1.483-.684.684.114 2.167.342.57.342.684.912 1.026l-3.078 3.991c-.228.228-.228.342-.456.57-.456.57-.456.228-.342.912-.228.456 0 .228-.457.684-1.026-.114-1.824-1.368-2.85-1.596l-4.561 3.079c-.57.342-1.026.684-1.597 1.14l1.027 3.649c-.57.342-7.07 2.964-7.64 2.964-.57-1.026-.912-2.85-1.482-3.648-.912-.228-2.737-.114-3.763-.114-1.254 0-2.167-.228-3.649-.228-.684 1.14-1.368 3.078-2.052 4.333-.571 0-6.5-1.597-7.184-1.939l.798-4.219-5.473-3.877c-.798.57-3.079 2.509-3.763 2.737l-4.903-6.157 2.851-2.965c-.114-.912-2.053-4.903-2.509-6.157-1.596-.228-3.193-.114-4.789-.228v-7.07c.798.228.912.228 1.939.114l2.052-6.956c-.684-.912-2.166-1.71-2.965-2.736 0-.114 2.965-5.929 3.193-5.473l2.509.456 2.85-3.763c.228-.342.912-1.026 1.026-1.254.799-1.141-.57-2.623.343-3.763.456-.57 1.71-1.825 1.938-2.509-1.14-.114-2.851.228-3.991.456-.684-.228-1.254.114-1.938.342l-.799.343c-3.876 1.824-6.499 4.218-9.35 7.183l-3.078 3.877c-.57.912-.342 2.28-.342 3.307l.114 33.067c0 .342.228.912.342 1.368l.342 1.597 3.649 10.148v.114l1.482 3.535c.228.456.228.228.456.684.456.912.798 1.71 1.368 2.622l1.255 2.623c.342.684.456.456 1.254.684l18.016 5.359c.684.114.912.456 1.71.228 1.483.228 3.193.912 4.675 1.369 1.141.342 3.649 1.368 4.675.912 5.474-2.737 6.728-3.307 11.517-6.5 1.14-.798 2.508-1.596 3.535-2.508l5.017-3.991c.57-.456.912-.912 1.482-1.368l3.193-2.851c1.368-1.14 7.297-7.64 8.78-9.122l1.482-1.482c.57-.57.912-1.027 1.368-1.597 1.939-2.28 3.535-3.42 5.588-6.385 1.824-2.509 3.42-3.763 4.561-7.298.684-2.052.228-3.306-.228-5.017-2.965-10.148-5.702-16.875-9.351-26.34-1.71-4.561-7.297-15.735-9.92-20.068-2.736-4.447-2.394-3.535-3.763-8.324-.342-1.254-.456-.912-1.368-1.71-.342-.342-1.14-1.026-1.596-1.254-.456.228-1.026.912-1.597 1.254l-6.499-3.193c0-.798.228-2.052.114-4.105-.684-.456-3.763-1.368-4.789-1.71-1.824-.57-2.737-1.254-3.535-.684-.57.456-2.28 1.938-2.85 1.938l-6.956-2.622v-4.676c-.456-.342-6.727-3.192-7.64-3.534l-3.078 3.078c-2.509-.228-7.298-4.675-8.894-6.613s-2.851-3.877-4.333-6.043c-1.026-1.483-.798-1.711-1.711-2.053-1.368-.456-7.753-3.079-8.323-3.079-.228.913-.114 12.315-.114 14.254 0 1.254-.229 9.692.228 10.49.57.57 1.254.912 1.596 1.824zm-70.582 10.149c-.456.456-.228.342-.456.912-.342 1.14-1.71 3.306-2.394 4.333l-2.395 4.219c-.228.456-.228.57-.456.912s-.228.342-.456.798-.342.57-.456.912l-9.122 20.525c-.228.456-.228.342-.342.912l-1.026 2.851v.114l-.342.912v.114l-2.737 7.754-.228.684-.342 1.14-1.596 4.903c-.457 1.026-.799 2.395-.685 3.649 0 .57.114.912.114 1.254l.228 1.14c.799 2.737 1.825 3.307 2.851 4.903 0 .114.228.342.228.456.342.457.114.115.342.457.228.228.228.456.57.798l3.079 3.763.342.342.912 1.14c3.193 3.193 6.044 6.385 9.236 9.578l.913.912 1.026 1.14c.684.913 1.71 2.053 2.622 2.737l1.255 1.026c1.482 1.483 3.192 2.851 4.789 4.219l.342.342 1.482 1.141c.57.456.912.798 1.482 1.254.456.342 1.027.684 1.597 1.14l8.666 5.359c.798.456 2.508 1.597 3.306 1.483 2.509.798.799 1.482 6.728-.342l6.727-1.939c5.474-1.596 11.631-3.649 16.876-5.017 1.368-.342 1.026-.228 2.052-2.281.457-1.026.913-1.938 1.369-2.85 1.938-3.877 4.903-11.745 6.043-15.964.798-2.964.456-13.113.456-16.875v-17.56c0-4.105.342-2.851-1.368-5.131l-2.053-2.395c-2.052-2.508-5.587-5.245-8.551-6.727-1.711-.913-5.36-1.939-7.184-1.711.228.456 1.026 1.369 1.368 1.825.342.342 1.483 1.368.684 2.166-.684 2.053-.114 2.509 1.141 3.991l2.622 3.421c.228.228.228.342.798.228.685-.114.913-.456 2.281-.456.114.912.342.684.57 1.254l2.053 3.991c-.229.114-.457.342-.799.57-.57.456-1.596 1.596-2.28 1.71l1.026 3.877c.342 1.026 1.026 3.307 1.026 3.877h2.053v6.614c-1.825.114-2.851 0-4.675.228-.342.57-2.395 5.359-2.395 5.929.342.684 2.167 2.166 2.851 3.193-.228.57-1.939 2.508-2.395 3.192-.57.684-1.824 2.509-2.508 2.965-.912-.456-2.281-1.71-3.307-2.395-.798-.456-.912-.114-2.395.913l-3.534 2.508.57 3.649h-.114c.342.342.228-.114.228.57-.342.228-6.842 1.939-7.298 1.939l-1.938-4.447-7.412.228c-.57.798-.912 2.964-1.596 3.762-.456 0-7.184-2.736-7.526-2.964.228-1.14.684-2.509.912-3.649-.684-.684-5.017-3.421-6.271-4.219-.912.456-1.938 1.482-2.737 1.71-.456-.342-4.333-5.587-4.561-6.157.342-.684 1.027-1.368 1.483-2.052-.228-.799-2.737-5.132-3.421-6.386-1.026-1.824-.57-.684-2.166-1.14-.571-1.482-.685-7.184-.685-9.008 0-9.008 5.131-17.104 10.605-23.831 2.28-2.851 4.219-5.017 7.411-7.298 2.053-1.482 3.877-2.508 6.386-3.421 2.622-.912 5.245-1.368 8.096-1.938l16.419-3.193c1.254-.228 2.623-.57 3.991-.798 3.535-.57 2.965-.114 6.043-3.877l3.421-3.991c.456-.57.684-.798 1.14-1.368l4.561-5.359c.342-.684.114-22.919.114-24.63-.57 0-6.499 2.281-7.411 2.737-1.939.798-1.597.798-2.623 2.395-.798 1.254-1.14 1.824-2.052 3.078-2.167 3.079-2.395 3.079-4.789 5.473-1.027 1.027-4.561 3.763-6.272 3.991l-2.964-2.964c-.571.114-6.842 2.85-7.64 3.306v4.789l-4.561 1.711c-2.965 1.026-1.938 1.254-4.219-.342-1.824-1.369-1.596-1.255-4.561-.114-1.596.57-3.193 1.14-4.903 1.596 0 3.763.456 3.991-.684 4.561a6.54 6.54 0 0 1-.798.456l-4.789 2.395c-1.711-.798-1.027-2.281-3.991.684-.799.912-.57 2.166-1.027 3.079zm139.567-124.174c.57.342 1.14 1.483 1.368 1.825-.114.57-1.14 2.166-1.482 2.964-.57 1.255-.684 2.167-1.026 3.307-2.965.114-2.281-.114-3.649-.228h-.684l-.456.114-1.939 7.868c1.027.456 2.167 1.824 3.193 2.394-.114.57-.57 1.483-.684 1.939-.798 1.938-1.254 3.762-1.482 6.043-.685.456-1.483.456-2.509.456-1.14 0-1.596.228-2.737.228l-1.596 5.245c-.114.456-.342.912-.456 1.369-.228.798-.342.684.114 1.254.228.342.57.57.798.912 2.395 2.737 2.509 2.623 1.254 5.473-.912 2.053-2.508 4.675-3.762 6.5-2.053 2.85-4.333 1.938-7.754 2.28l-3.307.228-9.692.456c-.57.685-1.368 2.509-1.938 3.535-1.141 2.167-5.36 9.806-5.588 10.947 4.789 1.71 4.219 1.14 8.666 1.938.799.114 1.711.114 2.623.114 1.938 0 5.017.684 7.298-.228 2.28-1.026 4.789-2.281 7.069-3.535 2.395-1.254 4.789-2.28 7.184-3.421 6.385-3.306 11.402-4.789 15.507-11.06.684-1.14 1.254-1.938 1.939-3.307 1.026-2.166 2.166-5.131 2.85-7.753.798-2.851 1.368-5.474 2.053-8.552.684-2.965 1.14-5.93 1.824-8.78 1.368-5.245 3.535-10.833 6.157-15.052 1.141-1.938 3.421-3.99 5.131-5.473 3.877-3.307 9.122-5.929 14.482-6.727 1.368-.228 8.78-1.026 9.692-.342l1.368.114.114 2.166 5.701 2.851 1.711-1.711c.456.114 4.675 3.421 5.245 3.877-.228.456-.456.798-.684 1.141-1.255 2.052-.456.798.57 3.306-.114.684.228.684.684 1.711.228.342.684 1.254 1.026 1.482.114.114 0 .228.684 0 1.027-.342 2.281-.456 2.851-.798 0 .798.114.456.342 1.14l.57 2.052s0 .115.114.229l.912 2.736c-.912 0-.912.114-1.482.342l-1.368.228v6.5l2.166 1.14c.228.114.57.228.798.342 0 .912-.342 1.71-.456 2.395-.114.798-.456 2.052-.456 2.736-1.14 0-1.254-.228-2.166-.342-1.483-.342-1.369-.684-2.737 1.368l-1.938 2.851v.57c.228.228.228.114.456.228.456.342 1.482 2.167 1.596 2.623l-4.447 4.447c-.342-.342-1.824-1.939-2.166-2.509-.798 0-4.219 1.597-5.017 1.939v3.99h-5.816v-1.254c-.912-.342-1.938-.456-2.964-.798-.912-.342-2.167-.798-3.079-.456-.342 0-.342 0-.684.684-.228.456-.342.57-.798.798l.114.456c-.228.342 0 .114-.228.342l-5.131-2.508.456-2.737-3.877-2.508c-.912-.57-.684 0-1.711 0-.684-.57-.798-.912-1.368-1.597-.342-.342-.912-1.14-1.368-1.368-.114 1.254 0 2.623 0 3.877s0 1.026 1.368 2.394c.684.685 1.368 1.141 2.053 1.825l10.262 7.411c.342.229.114 0 .456.457.114.228-.114 0 .228.342l1.368.912c.912.57 1.711 1.254 2.623 1.596 1.596.684 5.473 1.825 7.297 2.053 1.597.228 3.421.684 5.018.912 1.026.114 1.596.114 2.508.342 1.026.114 1.482 0 2.395.114l3.763-.342c.228-.114.228-.114.456-.342 0 0 .114-.114.228-.114l.228-.114s.114 0 .114-.114l10.148-5.702.456-.228.912-.342s.114 0 .114-.114h.228l.342-.114c.342-.114.571-.228 1.027-.342.684-.228 1.14-.342 1.71-.798l.342-.228c.456-.342.57-.798.684-1.254.228-1.027.342-1.483.342-2.509 0-2.166.228-10.832-.114-12.086-.114-.685 0-1.027-.114-1.711-.684-3.763-4.561-12.543-6.271-16.648-.228-.684-.684-1.254-.912-1.938-.342-.684-.57-1.254-.913-1.938-.684-1.369-1.254-2.623-1.938-3.877-1.254-2.509-2.508-5.017-3.991-7.412-1.14-1.824-2.052-3.649-3.193-5.359-.342-.57-.228-.342-.798-.57l-.57-.228c-.228-.114-.228-.114-.57-.228l-.912-.342h-.114l-.684-.342c-.228-.114-.114-.114-.456-.228l-9.693-4.219c-.342-.114-.114-.114-.456-.228h-.114l-.228-.114h-.114c-.228-.114-.342-.114-.57-.229l-.57-.228s-.114 0-.114-.114l-3.421-1.482c-.456-.228-.57-.228-1.026-.342l-.57-.342c-1.939-1.026-8.894-.228-11.517-.456-.798-.114-1.71-.114-2.736-.228-1.141-.114-.798.228-.798 1.938-.571 0-1.483-.114-2.053 0l-1.71.57c-.798.114-2.737 1.369-3.079 1.369s-.798-.456-1.026-.685c-.342-.228-.456-.456-.798-.684-.57-.228-.913 0-1.369.228l-.456.342c-.912.457-1.938.799-2.736 1.369s-2.281 1.368-3.079 1.596c0 1.254.342 2.053.342 3.307-.342.114-.57.342-.798.456-.456.228-.456.114-.798.456-.57.342-.913.798-1.369 1.14l-1.482 1.711s0 .114-.114.114c0 0 0 .114-.114.114 0 0 0 .114-.114.114 0 0 0 .114-.114.114l-.228.342c-.228.57-.114 0-.228.57-.57-.114-1.368-.342-1.939-.456-.228-.114-.228-.114-.456-.114-.57-.228 0-.114-.456-.228-.342-.114-.798 0-1.254 0-.114.798-.57 1.14-.912 1.71l-1.825 2.965c-.228.342-1.482 1.824-1.254 2.28.228-.228 0-.57.228-.456zm-211.744-10.49c-1.368 1.482-6.956 12.087-8.21 14.595-1.254 2.623-2.509 5.017-3.649 7.754a125.71 125.71 0 0 0-4.675 12.429c-.57 1.71-.456 14.937-.456 16.419 0 3.421 1.026 3.991 3.535 4.675l2.053.798c1.71.571 4.105 2.053 5.701 2.851.798.342.912.912 1.938 1.026 1.824.684 3.649 2.851 5.587 2.965 4.105.342 10.946-1.14 14.823-2.053 5.359-1.368 6.499-2.622 11.175-5.815 1.14-.798 7.526-5.359 8.438-6.271.456-.456.57-.57 1.14-1.026.684-.457 1.938-1.483 1.938-2.395.114-1.026 0-3.307 0-4.333-.798.342-2.28 2.851-2.736 2.965-1.026-.114-.684-.57-1.482-.114l-3.991 2.622c0 .684.342 1.939.342 2.509-.342.342-4.561 2.508-5.131 2.622-.684-.57-1.14-1.71-1.938-2.508l-5.701 1.596v1.254H74.46v-3.99c-1.026-.342-4.105-1.825-5.131-1.939l-2.166 2.509c-.456-.342-4.219-4.105-4.447-4.561.342-.57.456-.912.912-1.483 1.254-1.938 1.368-1.254-.57-3.762-.57-.685-1.026-1.483-1.596-2.167l-3.535.798c-.228-.57-.456-2.166-.684-2.85-.228-.799-.57-2.167-.456-2.965.912-.57 2.166-1.14 2.965-1.596v-5.702c-.798-.57-1.939-.57-2.851-.912.114-.684 1.824-5.929 2.053-6.385l3.535.798c.456-.912 1.026-1.824 1.482-2.623.342-.57 1.368-2.166 1.482-2.622-.342-.912-1.14-1.254-1.254-2.167.342-.342 1.14-1.14 1.825-1.368l.342.342c.342-.456.342-.342.684-.684.342-.228.456-.342.798-.684l1.254-.912c.114-.228.114 0 .114-.342 1.026.684 1.482 2.28 2.851 1.254l3.649-1.939c.228-.114.342-.114.57-.228 1.596-.684.912-.57.798-1.71s.342-1.14 3.307-1.14c2.053 0 3.877.114 5.701.114.912 0 1.482.342 2.395.456l3.307.798c.342.114.684.228 1.14.342l5.017 2.281c.342.228.57.456.912.684l1.596 1.026c.228.228.57.342.798.57l2.395 2.053c2.28 2.28 3.763 4.104 5.245 7.069l3.079 7.412c.228.456.228.57.342 1.026l3.078 13.113v.228l1.369 6.157c.114.228 0 0 .114.342l.456 1.711c.114.57.114.684.342 1.14l.456 1.026c.342.228 1.824 4.561 2.281 5.359.342.685.57.913.912 1.597 2.052 3.877 6.727 7.753 10.604 9.578 6.728 3.078 13.683 6.841 20.525 10.034.798.342 3.762.342 4.903.228 1.368-.114 3.648-.114 4.675-.342.456-.114 1.71-.228 2.28-.228a90.14 90.14 0 0 0 2.167-.342c1.596-.342 2.508-.798 3.991-1.254-.114-.799-3.763-7.64-4.561-9.122-.571-1.027-2.623-5.246-2.965-5.36-2.167-.114-4.447-.228-6.614-.228l-6.499-.342c-6.157-.228-6.613.114-10.262-6.613-.456-.798-.798-1.597-1.141-2.395-1.596-3.649-.228-2.964 2.167-6.385.342-.456.342-.456.114-1.026-.342-.913-1.938-6.956-2.166-6.5h-.229l-.798-.114c-1.14-.228-3.535 0-3.877-.57l-.912-4.219c-.342-1.026-1.254-3.079-1.254-3.877.912-.57 2.394-1.938 3.079-2.28l-1.939-7.982c-1.71 0-2.964.228-4.789.228-1.482-6.955-3.535-4.789-1.596-7.64.228-.342.456-.57.684-.912l-4.105-6.499c-1.482.114-2.623.684-3.877.798-.456-1.71-3.535-4.447-5.245-5.131 0-4.105 1.254-2.737-2.052-4.561-5.702-3.079-4.333-2.623-6.956-.798-1.026-.342-1.938-1.027-3.193-1.369-1.71-.57-2.052-.456-3.99-.57 0-.342 0-1.596-.228-1.824-.114-.114-9.806.114-11.06.114-2.623 0-2.737.114-4.675 1.026l-19.954 8.438zM200 0C89.51 0 0 89.51 0 200s89.51 200 200 200 200-89.51 200-200S310.49 0 200 0zm0 6.157C92.93 6.157 6.157 92.93 6.157 200S92.93 393.843 200 393.843 393.843 307.07 393.843 200 307.07 6.157 200 6.157z"/></svg>